# xmcd
#
# Track frame offsets:
#	150
#	17850
#	36900
#	51675
#	74700
#	90525
#	109200
#	129225
#	147375
#	163200
#	182025
#	197625
#	214425
#	234750
#	250875
#	269625
#
# Disc length: 3845 seconds
#
# Revision: 1
# Processed by: cddbd v1.5.2PL0 Copyright (c) Steve Scherf et al.
# Submitted via: audiograbber 1.83.01
#
DISCID=fc0f0310
DTITLE=Compilation - Party Tyme Karaoke
DYEAR=2013
DGENRE=Country
TTITLE0=Blake Shelton - Sure Be Cool If You Did
TTITLE1=Wanted - Hunter Hayes
TTITLE2=Miranda Lambert - Mama's Broken Heart
TTITLE3=Blake Shelton - Boys Round Here
TTITLE4=Lady Antebellum - Downtown
TTITLE5=Gary Allan - Every Storm Runs Out Of Rain
TTITLE6=Taylor Swift - Begin Again
TTITLE7=Tim McGraw - One of Those Nights
TTITLE8=Florida Georgia Line - Get Your Shine On
TTITLE9=Carrie Underwood - Two Black Cadillacs
TTITLE10=Randy Houser - How Country Feels
TTITLE11=Thompson Square - If I Didnt Have You
TTITLE12=Tim McGraw (feat) Taylor Swift - Highway Dont Care
TTITLE13=Little Big Town - Tornado
TTITLE14=Lee Brice - I Drive Your Truck
TTITLE15=Justin Moore - Till My Last Day
EXTD=
EXTT0=
EXTT1=
EXTT2=
EXTT3=
EXTT4=
EXTT5=
EXTT6=
EXTT7=
EXTT8=
EXTT9=
EXTT10=
EXTT11=
EXTT12=
EXTT13=
EXTT14=
EXTT15=
PLAYORDER=
